<svg width="29" height="26" viewBox="0 0 29 26" fill="none" xmlns="http://www.w3.org/2000/svg">
<path d="M27.8556 18.4324H8.60528L9.57184 16.4696L25.6316 16.4406C26.1747 16.4406 26.6402 16.0538 26.7372 15.5188L28.9612 3.10698C29.0194 2.78146 28.9321 2.44626 28.7188 2.19164C28.6133 2.06633 28.4818 1.9654 28.3333 1.89583C28.1848 1.82626 28.0229 1.78973 27.8589 1.78877L7.4286 1.72109L7.25404 0.902442C7.14413 0.380315 6.67217 0 6.13555 0H1.14112C0.838477 0 0.548229 0.119867 0.334227 0.333231C0.120225 0.546595 0 0.835979 0 1.13772C0 1.43946 0.120225 1.72885 0.334227 1.94221C0.548229 2.15558 0.838477 2.27544 1.14112 2.27544H5.21101L5.97392 5.89166L7.85208 14.958L5.43407 18.8933C5.30849 19.0622 5.23286 19.2629 5.21572 19.4725C5.19858 19.6821 5.24062 19.8923 5.33709 20.0793C5.53104 20.4629 5.92219 20.7046 6.35537 20.7046H8.38546C7.95267 21.2777 7.71891 21.9758 7.71954 22.6932C7.71954 24.5174 9.20655 26 11.0362 26C12.8659 26 14.3529 24.5174 14.3529 22.6932C14.3529 21.9745 14.1137 21.2751 13.687 20.7046H18.8948C18.462 21.2777 18.2282 21.9758 18.2288 22.6932C18.2288 24.5174 19.7159 26 21.5455 26C23.3752 26 24.8622 24.5174 24.8622 22.6932C24.8622 21.9745 24.623 21.2751 24.1963 20.7046H27.8589C28.486 20.7046 29 20.1954 29 19.5669C28.9981 19.2654 28.8767 18.977 28.6624 18.7645C28.448 18.5519 28.158 18.4325 27.8556 18.4324ZM7.9038 3.9643L26.5173 4.02554L24.6941 14.2038L10.0729 14.2296L7.9038 3.9643ZM11.0362 23.7117C10.4737 23.7117 10.0147 23.254 10.0147 22.6932C10.0147 22.1324 10.4737 21.6747 11.0362 21.6747C11.5987 21.6747 12.0577 22.1324 12.0577 22.6932C12.0577 22.9633 11.9501 23.2224 11.7585 23.4134C11.567 23.6044 11.3071 23.7117 11.0362 23.7117ZM21.5455 23.7117C20.9831 23.7117 20.524 23.254 20.524 22.6932C20.524 22.1324 20.9831 21.6747 21.5455 21.6747C22.108 21.6747 22.567 22.1324 22.567 22.6932C22.567 22.9633 22.4594 23.2224 22.2679 23.4134C22.0763 23.6044 21.8165 23.7117 21.5455 23.7117Z" fill="#1F719A"/>
</svg>
