<svg width="11" height="14" viewBox="0 0 11 14" fill="none" xmlns="http://www.w3.org/2000/svg">
<path d="M5.06356 4.25511e-10C3.72468 0.00111827 2.44065 0.532011 1.4919 1.47673C0.543163 2.42144 0.00681316 3.7032 0 5.04206C0 7.04943 1.12619 8.73012 1.95149 9.95517L2.10193 10.1787C2.92306 11.3688 3.80393 12.5165 4.74117 13.6174L5.06786 14L5.39454 13.6174C6.33166 12.5164 7.21253 11.3687 8.03378 10.1787L8.18422 9.95088C9.00522 8.72582 10.1314 7.04943 10.1314 5.04206C10.1246 3.70246 9.58765 2.42005 8.63799 1.47521C7.68832 0.530374 6.40318 -1.73468e-05 5.06356 4.25511e-10ZM5.06356 7.30734C4.50586 7.30734 3.96068 7.14196 3.49698 6.83212C3.03327 6.52228 2.67185 6.08189 2.45843 5.56665C2.245 5.0514 2.18916 4.48444 2.29796 3.93746C2.40677 3.39047 2.67532 2.88804 3.06968 2.49369C3.46403 2.09933 3.96646 1.83078 4.51345 1.72197C5.06043 1.61317 5.62739 1.66901 6.14264 1.88243C6.65788 2.09586 7.09827 2.45727 7.40811 2.92098C7.71795 3.38469 7.88333 3.92987 7.88333 4.48757C7.88333 5.23542 7.58625 5.95264 7.05744 6.48145C6.52863 7.01026 5.81141 7.30734 5.06356 7.30734Z" fill="#1F719A"/>
<path d="M5.06328 6.09088C5.94876 6.09088 6.66659 5.37305 6.66659 4.48756C6.66659 3.60208 5.94876 2.88425 5.06328 2.88425C4.17779 2.88425 3.45996 3.60208 3.45996 4.48756C3.45996 5.37305 4.17779 6.09088 5.06328 6.09088Z" fill="#1F719A"/>
</svg>
