<svg width="26" height="41" viewBox="0 0 26 41" fill="none" xmlns="http://www.w3.org/2000/svg">
<path d="M5.83887 8.22325C5.83887 6.26964 6.61493 4.39606 7.99634 3.01465C9.37775 1.63324 11.2513 0.857178 13.2049 0.857178C15.1585 0.857178 17.0321 1.63324 18.4135 3.01465C19.7949 4.39606 20.571 6.26964 20.571 8.22325V20.5C20.571 22.4536 19.7949 24.3272 18.4135 25.7086C17.0321 27.09 15.1585 27.8661 13.2049 27.8661C11.2513 27.8661 9.37775 27.09 7.99634 25.7086C6.61493 24.3272 5.83887 22.4536 5.83887 20.5V8.22325Z" fill="#3FA24E"/>
<path d="M2.1559 16.817C2.4815 16.817 2.79377 16.9463 3.024 17.1765C3.25424 17.4068 3.38358 17.719 3.38358 18.0446V20.5C3.38358 23.1048 4.41833 25.6029 6.26021 27.4448C8.10208 29.2867 10.6002 30.3214 13.205 30.3214C15.8098 30.3214 18.3079 29.2867 20.1498 27.4448C21.9917 25.6029 23.0264 23.1048 23.0264 20.5V18.0446C23.0264 17.719 23.1558 17.4068 23.386 17.1765C23.6162 16.9463 23.9285 16.817 24.2541 16.817C24.5797 16.817 24.892 16.9463 25.1222 17.1765C25.3524 17.4068 25.4818 17.719 25.4818 18.0446V20.5C25.4818 23.5435 24.3514 26.4785 22.3098 28.7356C20.2682 30.9927 17.4609 32.411 14.4327 32.7154V37.6875H21.7988C22.1244 37.6875 22.4366 37.8168 22.6669 38.0471C22.8971 38.2773 23.0264 38.5896 23.0264 38.9152C23.0264 39.2408 22.8971 39.553 22.6669 39.7833C22.4366 40.0135 22.1244 40.1429 21.7988 40.1429H4.61126C4.28566 40.1429 3.97339 40.0135 3.74316 39.7833C3.51292 39.553 3.38358 39.2408 3.38358 38.9152C3.38358 38.5896 3.51292 38.2773 3.74316 38.0471C3.97339 37.8168 4.28566 37.6875 4.61126 37.6875H11.9773V32.7154C8.9491 32.411 6.14187 30.9927 4.10025 28.7356C2.05863 26.4785 0.928184 23.5435 0.928223 20.5V18.0446C0.928223 17.719 1.05757 17.4068 1.2878 17.1765C1.51804 16.9463 1.8303 16.817 2.1559 16.817Z" fill="#3FA24E"/>
</svg>
