<svg width="13" height="14" viewBox="0 0 13 14" fill="none" xmlns="http://www.w3.org/2000/svg">
<path d="M2.33333 0C2.95217 0 3.54566 0.245833 3.98325 0.683418C4.42083 1.121 4.66667 1.71449 4.66667 2.33333V11.6667C4.66667 12.2855 4.42083 12.879 3.98325 13.3166C3.54566 13.7542 2.95217 14 2.33333 14C1.71449 14 1.121 13.7542 0.683417 13.3166C0.245832 12.879 1.3041e-08 12.2855 0 11.6667V2.33333C0 1.71449 0.245832 1.121 0.683417 0.683418C1.121 0.245833 1.71449 0 2.33333 0ZM10.1111 0C10.7299 0 11.3234 0.245833 11.761 0.683418C12.1986 1.121 12.4444 1.71449 12.4444 2.33333V11.6667C12.4444 12.2855 12.1986 12.879 11.761 13.3166C11.3234 13.7542 10.7299 14 10.1111 14C9.49227 14 8.89878 13.7542 8.46119 13.3166C8.02361 12.879 7.77778 12.2855 7.77778 11.6667V2.33333C7.77778 1.71449 8.02361 1.121 8.46119 0.683418C8.89878 0.245833 9.49227 0 10.1111 0Z" fill="#CA3030"/>
</svg>
