<svg width="54" height="59" viewBox="0 0 54 59" fill="none" xmlns="http://www.w3.org/2000/svg">
<path d="M14.6114 13.7974C14.6123 17.5071 16.7126 22.2299 19.1732 24.0759C19.8335 24.5713 19.2408 24.4267 20.0467 24.9303C13.8029 26.8264 5.67816 30.046 2 36.9425V56.2529H52V36.9425C48.3218 30.046 40.1971 26.8264 33.9533 24.9303C38.3671 22.1717 39.3876 18.3357 39.3886 13.7974C39.3743 7.51724 34.3448 2 27 2C19.6552 2 14.6257 7.51724 14.6114 13.7974Z" stroke="#1F719A" stroke-width="4" stroke-miterlimit="2.3" stroke-linecap="round"/>
<path fill-rule="evenodd" clip-rule="evenodd" d="M15.9771 8.89655C17.7536 9.05839 17.8144 7.72124 22.6827 8.00818C29.9541 8.43678 27.6035 10.6351 32.5645 10.7797C36.4311 10.6351 36.2667 9.4045 38.046 8.89655C35.1035 5.67816 32.1933 3.63057 27.0115 2C22.5977 3.37931 18.9196 5.67816 15.9771 8.89655Z" fill="#1F719A" stroke="#1F719A"/>
<path d="M12.8506 55.3333V42.4598" stroke="#1F719A" stroke-width="4"/>
<path d="M41.0806 55.3333V42.4598" stroke="#1F719A" stroke-width="4"/>
<path d="M16.7125 25.9081C16.7125 25.9081 14.9786 31.5305 16.7125 33.2644C21.5675 38.1193 32.4553 38.1193 37.3102 33.2644C39.0441 31.5305 37.3102 25.9081 37.3102 25.9081" stroke="#1F719A" stroke-width="4"/>
</svg>
