<svg width="32" height="50" viewBox="0 0 32 50" fill="none" xmlns="http://www.w3.org/2000/svg">
<path d="M6.25 9.375C6.25 6.8886 7.23772 4.50403 8.99587 2.74587C10.754 0.98772 13.1386 0 15.625 0C18.1114 0 20.496 0.98772 22.2541 2.74587C24.0123 4.50403 25 6.8886 25 9.375V25C25 27.4864 24.0123 29.871 22.2541 31.6291C20.496 33.3873 18.1114 34.375 15.625 34.375C13.1386 34.375 10.754 33.3873 8.99587 31.6291C7.23772 29.871 6.25 27.4864 6.25 25V9.375Z" fill="#1F719A"/>
<path d="M1.5625 20.3125C1.9769 20.3125 2.37433 20.4771 2.66735 20.7701C2.96038 21.0632 3.125 21.4606 3.125 21.875V25C3.125 28.3152 4.44196 31.4946 6.78616 33.8388C9.13037 36.183 12.3098 37.5 15.625 37.5C18.9402 37.5 22.1196 36.183 24.4638 33.8388C26.808 31.4946 28.125 28.3152 28.125 25V21.875C28.125 21.4606 28.2896 21.0632 28.5826 20.7701C28.8757 20.4771 29.2731 20.3125 29.6875 20.3125C30.1019 20.3125 30.4993 20.4771 30.7924 20.7701C31.0854 21.0632 31.25 21.4606 31.25 21.875V25C31.25 28.8735 29.8113 32.609 27.2129 35.4817C24.6145 38.3544 21.0416 40.1595 17.1875 40.5469V46.875H26.5625C26.9769 46.875 27.3743 47.0396 27.6674 47.3326C27.9604 47.6257 28.125 48.0231 28.125 48.4375C28.125 48.8519 27.9604 49.2493 27.6674 49.5424C27.3743 49.8354 26.9769 50 26.5625 50H4.6875C4.2731 50 3.87567 49.8354 3.58265 49.5424C3.28962 49.2493 3.125 48.8519 3.125 48.4375C3.125 48.0231 3.28962 47.6257 3.58265 47.3326C3.87567 47.0396 4.2731 46.875 4.6875 46.875H14.0625V40.5469C10.2084 40.1595 6.63555 38.3544 4.03712 35.4817C1.4387 32.609 -4.86614e-05 28.8735 1.23439e-09 25V21.875C1.23439e-09 21.4606 0.16462 21.0632 0.457646 20.7701C0.750672 20.4771 1.1481 20.3125 1.5625 20.3125Z" fill="#1F719A"/>
</svg>
